<svg width="33" height="33" viewBox="0 0 33 33" fill="none" xmlns="http://www.w3.org/2000/svg">
<mask id="mask0_278_3041" style="mask-type:alpha" maskUnits="userSpaceOnUse" x="0" y="0" width="33" height="33">
<rect x="0.0332031" y="0.499756" width="32" height="32" fill="#D9D9D9"/>
</mask>
<g mask="url(#mask0_278_3041)">
<path d="M15.9671 28.2997C16.1448 28.2997 16.3173 28.2721 16.4844 28.217C16.6506 28.161 16.8115 28.0441 16.9671 27.8663L28.1337 16.6997C28.4671 16.3663 28.7226 15.9886 28.9004 15.5663C29.0782 15.1441 29.1671 14.7108 29.1671 14.2663C29.1671 13.6886 29.0782 13.1775 28.9004 12.733C28.7226 12.2886 28.4671 11.8997 28.1337 11.5663L22.4671 5.86634C22.1115 5.51079 21.7062 5.2499 21.2511 5.08367C20.7951 4.91656 20.3115 4.83301 19.8004 4.83301C19.3782 4.83301 18.9448 4.91656 18.5004 5.08367C18.0559 5.2499 17.6671 5.49967 17.3337 5.83301L16.6671 6.49967L21.4337 11.233C21.7004 11.4997 21.8893 11.7939 22.0004 12.1157C22.1115 12.4383 22.1671 12.7552 22.1671 13.0663C22.1671 13.7997 21.9279 14.3939 21.4497 14.849C20.9724 15.305 20.3893 15.533 19.7004 15.533C19.3893 15.533 19.0728 15.4717 18.7511 15.349C18.4284 15.2272 18.1448 15.0441 17.9004 14.7997L13.9671 10.8663L6.96706 17.8663C6.8115 17.9997 6.70039 18.1552 6.63372 18.333C6.56706 18.5108 6.53372 18.6886 6.53372 18.8663C6.53372 19.2441 6.65595 19.5552 6.90039 19.7997C7.14483 20.0441 7.44483 20.1663 7.80039 20.1663C8.02261 20.1663 8.22261 20.1272 8.40039 20.049C8.57817 19.9717 8.72261 19.8663 8.83372 19.733L14.2004 14.3663L15.0671 15.1997L9.66706 20.5663C9.53372 20.7219 9.42839 20.8828 9.35106 21.049C9.27284 21.2161 9.23372 21.3997 9.23372 21.5997C9.23372 21.933 9.36172 22.2272 9.61772 22.4823C9.87284 22.7383 10.1782 22.8663 10.5337 22.8663C10.7337 22.8663 10.9226 22.8277 11.1004 22.7503C11.2782 22.6721 11.4337 22.5663 11.5671 22.433L17.1004 16.933L17.9337 17.7663L12.4004 23.2997C12.2671 23.4108 12.1617 23.5552 12.0844 23.733C12.0062 23.9108 11.9671 24.0997 11.9671 24.2997C11.9671 24.6552 12.0951 24.961 12.3511 25.217C12.6062 25.4721 12.9115 25.5997 13.2671 25.5997C13.4448 25.5997 13.6226 25.5606 13.8004 25.4823C13.9782 25.405 14.1337 25.2997 14.2671 25.1663L19.8004 19.633L20.6337 20.4663L15.1004 25.9997C14.9671 26.1552 14.8613 26.3277 14.7831 26.517C14.7057 26.7055 14.6671 26.8775 14.6671 27.033C14.6671 27.4108 14.7951 27.7161 15.0511 27.949C15.3062 28.1828 15.6115 28.2997 15.9671 28.2997ZM5.16706 17.933L13.9337 9.19967L18.7337 13.933C18.8893 14.0886 19.0448 14.1997 19.2004 14.2663C19.3559 14.333 19.5337 14.3663 19.7337 14.3663C20.0893 14.3663 20.3893 14.2383 20.6337 13.9823C20.8782 13.7272 21.0004 13.4219 21.0004 13.0663C21.0004 12.8886 20.9671 12.7108 20.9004 12.533C20.8337 12.3552 20.7337 12.1997 20.6004 12.0663L14.4004 5.86634C14.0226 5.48856 13.6226 5.2219 13.2004 5.06634C12.7782 4.91079 12.3115 4.83301 11.8004 4.83301C11.3559 4.83301 10.9226 4.92723 10.5004 5.11567C10.0782 5.30501 9.7115 5.55523 9.40039 5.86634L3.93372 11.333C3.64483 11.6219 3.40039 11.9997 3.20039 12.4663C3.00039 12.933 2.90039 13.4441 2.90039 13.9997C2.90039 14.5108 3.00039 15.0161 3.20039 15.5157C3.40039 16.0161 3.68928 16.4552 4.06706 16.833L5.16706 17.933Z" fill="#191C1E"/>
</g>
</svg>
