<svg width="24" height="28" viewBox="0 0 24 28" fill="none" xmlns="http://www.w3.org/2000/svg">
<path d="M8.78659 2.03412L2.04426 8.08697C2.01609 8.11226 2 8.14833 2 8.18619V25.8667C2 25.9403 2.05969 26 2.13333 26H22.3182C22.3918 26 22.4515 25.9403 22.4515 25.8667V2.13333C22.4515 2.05969 22.3918 2 22.3182 2H8.87566C8.84278 2 8.81106 2.01215 8.78659 2.03412Z" fill="#191C1E" stroke="#191C1E" stroke-width="2.66663"/>
<path d="M9.19261 23.3696H7.92061V18.9136H6.28861V17.7936H10.8166V18.9136H9.19261V23.3696ZM12.472 19.3376C12.8427 19.3376 13.1627 19.4003 13.432 19.5256C13.7014 19.6483 13.9067 19.8256 14.048 20.0576C14.192 20.287 14.264 20.5563 14.264 20.8656V23.3696H13.16L13.08 22.9776C12.84 23.2976 12.496 23.4576 12.048 23.4576C11.7547 23.4576 11.492 23.4003 11.26 23.2856C11.028 23.171 10.8467 23.011 10.716 22.8056C10.5854 22.6003 10.52 22.3643 10.52 22.0976C10.52 21.8736 10.5667 21.6803 10.66 21.5176C10.756 21.3523 10.8907 21.223 11.064 21.1296C11.3067 20.9963 11.6107 20.9296 11.976 20.9296H13.064V20.8656C13.064 20.7216 13.004 20.6056 12.884 20.5176C12.7667 20.4296 12.6 20.3856 12.384 20.3856C12.2214 20.3856 12.0627 20.4176 11.908 20.4816C11.756 20.543 11.5974 20.6523 11.432 20.8096L10.56 20.0816C10.7974 19.8336 11.084 19.6483 11.42 19.5256C11.7587 19.4003 12.1094 19.3376 12.472 19.3376ZM12.24 22.4896C12.384 22.4896 12.5174 22.4616 12.64 22.4056C12.7627 22.347 12.8614 22.267 12.936 22.1656C13.0134 22.0616 13.056 21.9456 13.064 21.8176H12.152C12.0214 21.8176 11.92 21.8416 11.848 21.8896C11.768 21.9456 11.728 22.023 11.728 22.1216C11.728 22.2336 11.7747 22.323 11.868 22.3896C11.9614 22.4563 12.0854 22.4896 12.24 22.4896ZM16.2225 23.3696H14.7505L16.0465 21.3776L14.7505 19.4256H16.2305L16.8545 20.5616L17.4785 19.4256H18.9585L17.6465 21.3776L18.9585 23.3696H17.4785L16.8545 22.2016L16.2225 23.3696Z" fill="#F5F5F5"/>
<path d="M9.53306 8.39218V2.82446L3.4502 8.39218H9.53306Z" fill="white"/>
<path d="M6.22461 13.3696H21.2246" stroke="#F5F5F5" stroke-width="1.5"/>
<path d="M13.2246 9.36963L21.2246 9.36963" stroke="#F5F5F5" stroke-width="1.5"/>
</svg>
